<?xml version="1.0" encoding="iso-8859-1"?>
<!-- Generator: Adobe Illustrator 19.0.0, SVG Export Plug-In . SVG Version: 6.00 Build 0)  -->
<svg xmlns="http://www.w3.org/2000/svg" xmlns:xlink="http://www.w3.org/1999/xlink" version="1.1" id="Layer_1" x="0px" y="0px" viewBox="0 0 426.667 426.667" style="enable-background:new 0 0 426.667 426.667;" xml:space="preserve" width="512px" height="512px">
<g>
	<g>
		<g>
			<path d="M12.672,147.491l192,85.333c2.752,1.216,5.696,1.835,8.661,1.835s5.909-0.619,8.661-1.835l192-85.333     c7.723-3.435,12.672-11.072,12.672-19.499c0-8.427-4.949-16.064-12.651-19.477l-192-85.333c-5.525-2.453-11.819-2.453-17.344,0     l-192,85.333C4.949,111.928,0,119.544,0,127.992S4.949,144.077,12.672,147.491z M213.333,65.997l139.456,61.995l-139.456,61.995     L73.877,127.992L213.333,65.997z" fill="#FCFFF5"/>
			<path d="M0,186.68v46.208l205.12,85.504c2.624,1.131,5.419,1.6,8.213,1.6c3.008,0,6.016-0.619,8.811-1.856l204.523-92.949     v-46.869l-213.717,97.109L0,186.68z" fill="#FCFFF5"/>
			<path d="M0,272.013v46.208l205.12,85.504c2.624,1.131,5.419,1.6,8.213,1.6c3.008,0,6.016-0.619,8.811-1.856l204.523-92.949     v-46.869L212.949,360.76L0,272.013z" fill="#FCFFF5"/>
		</g>
	</g>
</g>
</svg>
