<?xml version="1.0" encoding="iso-8859-1"?>
<!-- Generator: Adobe Illustrator 19.0.0, SVG Export Plug-In . SVG Version: 6.00 Build 0)  -->
<svg xmlns="http://www.w3.org/2000/svg" xmlns:xlink="http://www.w3.org/1999/xlink" version="1.1" id="Layer_1" x="0px" y="0px" viewBox="0 0 426.667 426.667" style="enable-background:new 0 0 426.667 426.667;" xml:space="preserve" width="512px" height="512px">
		<path d="M384,0H192c-23.552,0-42.667,19.136-42.667,42.667v42.667C149.333,108.864,168.448,128,192,128h192     c23.552,0,42.667-19.136,42.667-42.667V42.667C426.667,19.136,407.552,0,384,0z M383.936,85.333H192V42.667h192L383.936,85.333z" fill="#3E606F"/>
			<path d="M384,149.333H192c-23.552,0-42.667,19.136-42.667,42.667v42.667c0,23.531,19.115,42.667,42.667,42.667h192     c23.552,0,42.667-19.136,42.667-42.667V192C426.667,168.469,407.552,149.333,384,149.333z M383.936,234.667H192V192h192     L383.936,234.667z" fill="#3E606F"/>
			<path d="M384,298.667H192c-23.552,0-42.667,19.136-42.667,42.667V384c0,23.531,19.115,42.667,42.667,42.667h192     c23.552,0,42.667-19.136,42.667-42.667v-42.667C426.667,317.803,407.552,298.667,384,298.667z M383.936,384H192v-42.667h192     L383.936,384z" fill="#3E606F"/>
			<path d="M85.333,0H42.667C19.115,0,0,19.136,0,42.667v42.667C0,108.864,19.115,128,42.667,128h42.667     C108.885,128,128,108.864,128,85.333V42.667C128,19.136,108.885,0,85.333,0z M85.269,85.333H42.667V42.667h42.667L85.269,85.333z     " fill="#3E606F"/>
			<path d="M85.333,149.333H42.667C19.115,149.333,0,168.469,0,192v42.667c0,23.531,19.115,42.667,42.667,42.667h42.667     c23.552,0,42.667-19.136,42.667-42.667V192C128,168.469,108.885,149.333,85.333,149.333z M85.269,234.667H42.667V192h42.667     L85.269,234.667z" fill="#3E606F"/>
			<path d="M85.333,298.667H42.667C19.115,298.667,0,317.803,0,341.333V384c0,23.531,19.115,42.667,42.667,42.667h42.667     C108.885,426.667,128,407.531,128,384v-42.667C128,317.803,108.885,298.667,85.333,298.667z M85.269,384H42.667v-42.667h42.667     L85.269,384z" fill="#3E606F"/>
</svg>
