<?xml version="1.0" encoding="iso-8859-1"?>
<!-- Generator: Adobe Illustrator 19.0.0, SVG Export Plug-In . SVG Version: 6.00 Build 0)  -->
<svg xmlns="http://www.w3.org/2000/svg" xmlns:xlink="http://www.w3.org/1999/xlink" version="1.1" id="Layer_1" x="0px" y="0px" viewBox="0 0 490.667 490.667" style="enable-background:new 0 0 490.667 490.667;" xml:space="preserve" width="512px" height="512px">
<g>
	<g>
		<g>
			<path d="M128,42.667h213.333v234.667H384v-256C384,9.557,374.464,0,362.667,0H21.333C9.536,0,0,9.579,0,21.333v384     c0,11.776,9.536,21.333,21.333,21.333h256V384H128V42.667z M85.333,384H42.667V42.667h42.667V384z" fill="#3E606F"/>
			<polygon points="426.667,384 426.667,320 384,320 384,384 320,384 320,426.667 384,426.667 384,490.667 426.667,490.667      426.667,426.667 490.667,426.667 490.667,384    " fill="#3E606F"/>
		</g>
	</g>
</g>
<g>
</g>
<g>
</g>
<g>
</g>
<g>
</g>
<g>
</g>
<g>
</g>
<g>
</g>
<g>
</g>
<g>
</g>
<g>
</g>
<g>
</g>
<g>
</g>
<g>
</g>
<g>
</g>
<g>
</g>
</svg>
